<svg xmlns="http://www.w3.org/2000/svg" width="15" height="13" viewBox="0 0 15 13">
  <path fill="#FFF" d="M18.7155198,20.4310397 C18.7155198,20.7406303 18.6024002,21.0085453 18.3761608,21.2347846 C18.1499215,21.461024 17.8820065,21.5741436 17.5724159,21.5741436 C17.2628252,21.5741436 16.9949102,21.461024 16.7686709,21.2347846 C16.5424316,21.0085453 16.4293119,20.7406303 16.4293119,20.4310397 C16.4293119,20.121449 16.5424316,19.853534 16.7686709,19.6272947 C16.9949102,19.4010554 17.2628252,19.2879357 17.5724159,19.2879357 C17.8820065,19.2879357 18.1499215,19.4010554 18.3761608,19.6272947 C18.6024002,19.853534 18.7155198,20.121449 18.7155198,20.4310397 Z M26.7172476,20.4310397 C26.7172476,20.7406303 26.6041279,21.0085453 26.3778886,21.2347846 C26.1516493,21.461024 25.8837343,21.5741436 25.5741436,21.5741436 C25.264553,21.5741436 24.996638,21.461024 24.7703987,21.2347846 C24.5441593,21.0085453 24.4310397,20.7406303 24.4310397,20.4310397 C24.4310397,20.121449 24.5441593,19.853534 24.7703987,19.6272947 C24.996638,19.4010554 25.264553,19.2879357 25.5741436,19.2879357 C25.8837343,19.2879357 26.1516493,19.4010554 26.3778886,19.6272947 C26.6041279,19.853534 26.7172476,20.121449 26.7172476,20.4310397 Z M27.8603516,10.7146559 L27.8603516,15.2870718 C27.8603516,15.4299598 27.8112338,15.5564752 27.7129983,15.6666181 C27.6147628,15.7767609 27.4942011,15.8407628 27.3513131,15.8586238 L18.0278714,16.9481448 C18.105269,17.3053648 18.1439678,17.5137431 18.1439678,17.5732797 C18.1439678,17.6685384 18.0725239,17.8590557 17.9296359,18.1448317 L26.1456956,18.1448317 C26.3004909,18.1448317 26.4344484,18.2013916 26.5475681,18.3145112 C26.6606878,18.4276309 26.7172476,18.5615884 26.7172476,18.7163837 C26.7172476,18.871179 26.6606878,19.0051365 26.5475681,19.1182562 C26.4344484,19.2313759 26.3004909,19.2879357 26.1456956,19.2879357 L17.0008639,19.2879357 C16.8460686,19.2879357 16.7121111,19.2313759 16.5989914,19.1182562 C16.4858717,19.0051365 16.4293119,18.871179 16.4293119,18.7163837 C16.4293119,18.6508934 16.4531266,18.5571231 16.5007559,18.435073 C16.5483852,18.3130228 16.5960146,18.2058568 16.6436439,18.113575 C16.6912732,18.0212932 16.7552751,17.9022198 16.8356496,17.756355 C16.9160241,17.6104902 16.9621651,17.5226736 16.9740724,17.4929052 L15.3933739,10.143104 L13.571552,10.143104 C13.4167567,10.143104 13.2827992,10.0865441 13.1696795,9.97342447 C13.0565598,9.86030481 13,9.72634731 13,9.57155198 C13,9.41675665 13.0565598,9.28279916 13.1696795,9.1696795 C13.2827992,9.05655983 13.4167567,9 13.571552,9 L15.8577599,9 C15.9530186,9 16.0378583,9.01934942 16.1122792,9.05804825 C16.1867,9.09674708 16.2447482,9.142888 16.2864239,9.19647099 C16.3280996,9.25005399 16.3667984,9.32298641 16.4025204,9.41526824 C16.4382424,9.50755007 16.4620571,9.58494773 16.4739644,9.64746123 C16.4858717,9.70997473 16.5022443,9.79779131 16.5230821,9.91091097 C16.54392,10.0240306 16.5573157,10.1014283 16.5632694,10.143104 L27.2887996,10.143104 C27.4435949,10.143104 27.5775524,10.1996638 27.6906721,10.3127835 C27.8037917,10.4259031 27.8603516,10.5598606 27.8603516,10.7146559 Z" transform="translate(-13 -9)"/>
</svg>
