<svg xmlns="http://www.w3.org/2000/svg" width="13" height="13" viewBox="0 0 13 13">
  <g fill="#96CBA4">
    <path d="M6.21054688,0 C2.78063121,0 0,2.78049007 0,6.21054688 C0,9.64060368 2.78063121,12.4210938 6.21054688,12.4210938 C9.64046254,12.4210938 12.4210938,9.64060368 12.4210938,6.21054688 C12.4210938,2.78049007 9.64046254,0 6.21054688,0 Z M6.21054687,11.2919034 C3.40422658,11.2919034 1.12919034,9.01686717 1.12919034,6.21054687 C1.12919034,3.40422658 3.40422658,1.12919034 6.21054687,1.12919034 C9.01686717,1.12919034 11.2919034,3.40422658 11.2919034,6.21054687 C11.2919034,9.01686717 9.01686717,11.2919034 6.21054687,11.2919034 Z"/>
    <path d="M8.50901381,4.68190545 C8.2885394,4.46157219 7.93100951,4.46157219 7.71053509,4.68190545 L5.71440887,6.67817282 L4.91593015,5.87969411 C4.69545574,5.65921969 4.33806699,5.65921969 4.11745143,5.87969411 C3.89697702,6.10016852 3.89697702,6.45769841 4.11745143,6.67831397 L5.31495779,7.87567918 C5.5354322,8.0961536 5.89310324,8.0961536 6.11357765,7.87567918 L8.50887267,5.48038417 C8.72948823,5.25990976 8.72977053,4.90252101 8.50901381,4.68190545 Z"/>
  </g>
</svg>
